<svg id="katman_1" data-name="katman 1" xmlns="http://www.w3.org/2000/svg" viewBox="0 0 87.53 25.02"><defs><style>.cls-1{fill:#e9515e;}.cls-2{fill:#fafcfd;}</style></defs><g id="Group_691" data-name="Group 691"><path id="Path_1171" data-name="Path 1171" class="cls-1" d="M57.56,8.87h2s.07.07,0,.12l-6,15.2a1.14,1.14,0,0,1-1,.81H50.72c-.08,0-.13-.14-.1-.24l6-15.09A1.1,1.1,0,0,1,57.56,8.87Z" transform="translate(0.02 0)"/><path id="Path_1172" data-name="Path 1172" class="cls-1" d="M54.42,8.24a.37.37,0,0,0-.22-.49.35.35,0,0,0-.14,0H48c-.32,0-.52.5-.36.91l2.06,5.24a.43.43,0,0,0,.36.3h1.4a.37.37,0,0,0,.39-.37.77.77,0,0,0,0-.15L50.8,11c-.07-.19,0-.43.17-.43h2.26a.38.38,0,0,0,.37-.24Z" transform="translate(0.02 0)"/><path id="Path_1173" data-name="Path 1173" class="cls-1" d="M55.83,24.27a.53.53,0,0,0,.31.69.45.45,0,0,0,.2,0h5.8c.31,0,.51-.5.35-.91l-2.06-5.24a.43.43,0,0,0-.36-.3H58.9a.55.55,0,0,0-.55.53.65.65,0,0,0,0,.2l1,2.47c.08.19,0,.43-.17.43H57a.53.53,0,0,0-.5.34Z" transform="translate(0.02 0)"/><path id="Path_1174" data-name="Path 1174" class="cls-2" d="M1.13,23.64A6.8,6.8,0,0,1,0,19.28V.93A.88.88,0,0,1,.83,0H2.78A.88.88,0,0,1,3.6.93v17.8A4.62,4.62,0,0,0,4,21.07a1.89,1.89,0,0,0,1.39.8L6,22a.91.91,0,0,1,.72.93v1.2a.88.88,0,0,1-.83.92H4.61A4.24,4.24,0,0,1,1.13,23.64Z" transform="translate(0.02 0)"/><path id="Path_1175" data-name="Path 1175" class="cls-2" d="M9.17,23.9a4.06,4.06,0,0,1-1.09-3V19.58a3.93,3.93,0,0,1,1.27-3.07,5.4,5.4,0,0,1,3.76-1.14h3.61a.84.84,0,0,0,.83-.86V14a3.1,3.1,0,0,0-.29-1.44,1.88,1.88,0,0,0-1.07-.83,7,7,0,0,0-2.27-.29H10a.84.84,0,0,1-.82-.85V9.89a.84.84,0,0,1,.64-.83,23.28,23.28,0,0,1,5.45-.59,6.74,6.74,0,0,1,4.4,1.2c1,.8,1.44,2.15,1.44,4V24a.84.84,0,0,1-.82.85H18.91a.82.82,0,0,1-.77-.56l-.07-.18a.81.81,0,0,0-1-.53l-.14.06a2.69,2.69,0,0,1-.38.2,12.23,12.23,0,0,1-2.1.83A8.16,8.16,0,0,1,12,25,3.85,3.85,0,0,1,9.17,23.9ZM15.94,22,17,21.59a.87.87,0,0,0,.55-.81V18.05a.84.84,0,0,0-.82-.86h-.05l-2.5.13c-1.68.15-2.52.92-2.52,2.32v.67a1.85,1.85,0,0,0,.6,1.56,2.39,2.39,0,0,0,1.52.51A7.6,7.6,0,0,0,15.94,22Z" transform="translate(0.02 0)"/><path id="Path_1176" data-name="Path 1176" class="cls-2" d="M26.38,8.87h1.55a.81.81,0,0,1,.76.53l.08.18a.8.8,0,0,0,1,.48L30,10a10.76,10.76,0,0,1,1.66-.84,7.37,7.37,0,0,1,2.74-.56A4.31,4.31,0,0,1,38,10.14a6.83,6.83,0,0,1,1.13,4.11v9.89a.84.84,0,0,1-.82.86h-2a.84.84,0,0,1-.83-.86V14.7a2.8,2.8,0,0,0-.7-2A2.46,2.46,0,0,0,33,12a5.51,5.51,0,0,0-2,.33,7.54,7.54,0,0,0-1.45.72.86.86,0,0,0-.41.74V24.14a.84.84,0,0,1-.83.86H26.37a.84.84,0,0,1-.82-.86V9.72A.83.83,0,0,1,26.38,8.87Z" transform="translate(0.02 0)"/><path id="Path_1177" data-name="Path 1177" class="cls-2" d="M43.1,8.87h1.95a.83.83,0,0,1,.82.85V24.14a.84.84,0,0,1-.82.86H43.1a.84.84,0,0,1-.83-.86V9.72a.83.83,0,0,1,.83-.85Z" transform="translate(0.02 0)"/><rect id="Rectangle_66" data-name="Rectangle 66" class="cls-2" x="42.3" y="2.42" width="3.6" height="3.88" rx="1.56"/><path id="Path_1178" data-name="Path 1178" class="cls-2" d="M65.33,23.61c-.75-.92-1.1-2.48-1.06-4.68l.1-7.36a.89.89,0,0,0-.82-1h-.78A.87.87,0,0,1,62,9.69v-1a.91.91,0,0,1,.64-.91l1.34-.35a.88.88,0,0,0,.64-.8l.37-3.46a.87.87,0,0,1,.82-.83H67a.9.9,0,0,1,.82.94V6.39a.88.88,0,0,0,.83.93H71a.9.9,0,0,1,.82.94V9.69a.88.88,0,0,1-.82.93h-2.3a.9.9,0,0,0-.83.94V18.9a3.48,3.48,0,0,0,.51,2.16,2,2,0,0,0,1.32.71l1.21.14a.91.91,0,0,1,.74.94v1.21a.89.89,0,0,1-.83.94H69A4.47,4.47,0,0,1,65.33,23.61Z" transform="translate(0.02 0)"/><path id="Path_1179" data-name="Path 1179" class="cls-2" d="M75.52,23.9a4.06,4.06,0,0,1-1.09-3V19.58a4,4,0,0,1,1.26-3.07,5.43,5.43,0,0,1,3.76-1.14h3.62a.84.84,0,0,0,.83-.86V14a3.1,3.1,0,0,0-.29-1.44,1.87,1.87,0,0,0-1.08-.83,6.92,6.92,0,0,0-2.26-.29H76.39a.85.85,0,0,1-.83-.85V9.89a.86.86,0,0,1,.65-.83,23.28,23.28,0,0,1,5.45-.59,6.75,6.75,0,0,1,4.4,1.2c1,.8,1.44,2.15,1.44,4V24a.84.84,0,0,1-.82.85H85.26a.82.82,0,0,1-.77-.56l-.07-.18a.81.81,0,0,0-1-.53l-.14.06a2.69,2.69,0,0,1-.38.2,11.92,11.92,0,0,1-2.1.83,8.12,8.12,0,0,1-2.4.36A3.85,3.85,0,0,1,75.52,23.9ZM82.29,22l1-.36a.86.86,0,0,0,.56-.81V18.05a.84.84,0,0,0-.82-.86h0l-2.5.13c-1.68.15-2.53.92-2.52,2.32v.67a1.85,1.85,0,0,0,.6,1.56,2.39,2.39,0,0,0,1.52.51A7.6,7.6,0,0,0,82.29,22Z" transform="translate(0.02 0)"/></g></svg>