
<svg data-name="katman 1" viewBox="0 0 771 450.5" xmlns="http://www.w3.org/2000/svg">
<defs>
<style>.cls-1,
            .cls-11,
            .cls-13,
            .cls-18,
            .cls-19,
            .cls-20,
            .cls-25,
            .cls-27,
            .cls-28,
            .cls-29,
            .cls-3,
            .cls-30,
            .cls-31,
            .cls-33,
            .cls-34,
            .cls-35,
            .cls-36,
            .cls-40,
            .cls-42,
            .cls-43,
            .cls-44,
            .cls-45,
            .cls-6,
            .cls-9 {
                fill: none;
            }

            .cls-1,
            .cls-2,
            .cls-3 {
                stroke: #b7cbf9;
            }

            .cls-1,
            .cls-2,
            .cls-20,
            .cls-3,
            .cls-33,
            .cls-35,
            .cls-36,
            .cls-42 {
                stroke-linejoin: round;
            }

            .cls-17,
            .cls-2 {
                fill: #fff;
            }

            .cls-3 {
                stroke-dasharray: 3.5;
            }

            .cls-4 {
                fill: #e8ecf9;
            }

            .cls-5 {
                fill: #cbd5f7;
            }

            .cls-6 {
                stroke: #c3c3e2;
            }

            .cls-11,
            .cls-13,
            .cls-18,
            .cls-19,
            .cls-25,
            .cls-27,
            .cls-28,
            .cls-29,
            .cls-30,
            .cls-31,
            .cls-34,
            .cls-40,
            .cls-43,
            .cls-44,
            .cls-45,
            .cls-6,
            .cls-9 {
                stroke-miterlimit: 10;
            }

            .cls-7 {
                fill: #ffcbc2;
            }

            .cls-8 {
                fill: #748eed;
            }

            .cls-9 {
                stroke: #616be5;
            }

            .cls-11,
            .cls-13,
            .cls-18,
            .cls-25,
            .cls-27,
            .cls-29,
            .cls-30,
            .cls-31,
            .cls-33,
            .cls-42,
            .cls-44,
            .cls-9 {
                stroke-width: 0.75px;
            }

            .cls-10 {
                fill: #d7e0f9;
            }

            .cls-11 {
                stroke: #858fe8;
            }

            .cls-12 {
                fill: #93a5f9;
            }

            .cls-13 {
                stroke: #4646d3;
            }

            .cls-14 {
                fill: #e8eefe;
            }

            .cls-15 {
                fill: #a34d41;
            }

            .cls-16 {
                fill: #212237;
            }

            .cls-18,
            .cls-45 {
                stroke: #753027;
            }

            .cls-19,
            .cls-20,
            .cls-30 {
                stroke: #212237;
            }

            .cls-20 {
                stroke-linecap: round;
            }

            .cls-20,
            .cls-28,
            .cls-40,
            .cls-43 {
                stroke-width: 0.5px;
            }

            .cls-21 {
                fill: #4936ba;
            }

            .cls-22,
            .cls-32 {
                fill: #25225b;
            }

            .cls-23 {
                fill: #ffcbbb;
            }

            .cls-24 {
                fill: #011e3b;
            }

            .cls-25 {
                stroke: #ff7383;
            }

            .cls-26 {
                fill: #fc636b;
            }

            .cls-27 {
                stroke: #931c33;
            }

            .cls-28,
            .cls-29,
            .cls-36 {
                stroke: #f7a794;
            }

            .cls-31 {
                stroke: #746fef;
            }

            .cls-32 {
                fill-rule: evenodd;
            }

            .cls-33 {
                stroke: #3e4293;
            }

            .cls-34,
            .cls-43,
            .cls-44 {
                stroke: #ef977f;
            }

            .cls-35 {
                stroke: #ff855a;
            }

            .cls-37 {
                fill: #dcddef;
            }

            .cls-38 {
                fill: #c8cced;
            }

            .cls-39 {
                fill: #eaeaf9;
            }

            .cls-40 {
                stroke: #f7958b;
            }

            .cls-41 {
                fill: #5151d9;
            }

            .cls-42 {
                stroke: #301c91;
            }</style>
</defs>
<g data-name="Group 4239">
<g data-name="Group 20">
<g data-name="Group 3">
<line class="cls-1" x1="700.95" x2="700.95" y1="104.48" y2="109.96" data-name="Line 1"/>
<line class="cls-1" x1="703.69" x2="698.21" y1="107.22" y2="107.22" data-name="Line 2"/>
</g>
<g data-name="Group 4">
<line class="cls-1" x1="762.1" x2="762.1" y1="347.12" y2="352.59" data-name="Line 3"/>
<line class="cls-1" x1="764.84" x2="759.37" y1="349.85" y2="349.85" data-name="Line 4"/>
</g>
<g data-name="Group 5">
<line class="cls-1" x1="127.56" x2="127.56" y1="82.33" y2="87.8" data-name="Line 5"/>
<line class="cls-1" x1="130.3" x2="124.82" y1="85.07" y2="85.07" data-name="Line 6"/>
</g>
<g data-name="Group 6">
<line class="cls-1" x1="311.95" x2="311.95" y1="64.71" y2="70.19" data-name="Line 7"/>
<line class="cls-1" x1="314.69" x2="309.22" y1="67.45" y2="67.45" data-name="Line 8"/>
</g>
<g data-name="Group 7">
<line class="cls-1" x1="77.82" x2="77.82" y1="169.93" y2="175.41" data-name="Line 9"/>
<line class="cls-1" x1="80.56" x2="75.08" y1="172.67" y2="172.67" data-name="Line 10"/>
</g>
<g data-name="Group 8">
<line class="cls-1" x1="276.17" x2="276.17" y1="336.18" y2="341.65" data-name="Line 11"/>
<line class="cls-1" x1="278.91" x2="273.43" y1="338.92" y2="338.92" data-name="Line 12"/>
</g>
<g data-name="Group 9">
<line class="cls-1" x1="435.07" x2="435.07" y1="125.89" y2="131.36" data-name="Line 13"/>
<line class="cls-1" x1="437.8" x2="432.33" y1="128.63" y2="128.63" data-name="Line 14"/>
</g>
<path class="cls-1" transform="translate(-574.91 -314.66)" d="m956.1 320.39a2.62 2.62 0 1 1-2.61-2.62 2.61 2.61 0 0 1 2.61 2.62z" data-name="Path 2"/>
<path class="cls-1" transform="translate(-574.91 -314.66)" d="m1339.6 562.36a2.62 2.62 0 1 1-2.61-2.61 2.61 2.61 0 0 1 2.61 2.61z" data-name="Path 3"/>
<path class="cls-1" transform="translate(-574.91 -314.66)" d="m1100.5 376.76a2.62 2.62 0 1 1-2.61-2.61 2.61 2.61 0 0 1 2.61 2.61z" data-name="Path 4"/>
<path class="cls-1" transform="translate(-574.91 -314.66)" d="M874,465a2.62,2.62,0,1,1-2.61-2.62A2.61,2.61,0,0,1,874,465Z" data-name="Path 5"/>
<circle class="cls-1" cx="635.26" cy="104.61" r="2.61" data-name="Ellipse 1"/>
<circle class="cls-1" cx="4.35" cy="331.13" r="2.61" data-name="Ellipse 2"/>
<circle class="cls-1" cx="92.32" cy="136.16" r="2.61" data-name="Ellipse 3"/>
<circle class="cls-1" cx="169.51" cy="39.42" r="2.61" data-name="Ellipse 4"/>
<g data-name="Group 10">
<line class="cls-1" x1="51.15" x2="80.67" y1="97.29" y2="97.29" data-name="Line 15"/>
<line class="cls-1" x1="89.66" x2="102.83" y1="97.29" y2="97.29" data-name="Line 16"/>
</g>
<g data-name="Group 11">
<line class="cls-1" x1="568.49" x2="598.01" y1="65.52" y2="65.52" data-name="Line 17"/>
<line class="cls-1" x1="607" x2="620.18" y1="65.52" y2="65.52" data-name="Line 18"/>
</g>
<g data-name="Group 12">
<line class="cls-1" x1="283.54" x2="263.49" y1=".5" y2=".5" data-name="Line 19"/>
<line class="cls-1" x1="256.86" x2="246.06" y1=".5" y2=".5" data-name="Line 20"/>
</g>
<line class="cls-1" x1="449.47" x2="471.05" y1="39.42" y2="39.42" data-name="Line 21"/>
<line class="cls-1" x1="671.13" x2="692.7" y1="178.59" y2="178.59" data-name="Line 22"/>
<line class="cls-1" x1="691.12" x2="705.31" y1="168.96" y2="168.96" data-name="Line 23"/>
<g data-name="Group 17">
<path class="cls-2" transform="translate(-574.91 -314.66)" d="m1008.7 386.56a23.67 23.67 0 1 0-12.56 20.88l5.52 2.77-1.52-5.44a23.59 23.59 0 0 0 8.56-18.21z" data-name="Path 6"/>
<g data-name="Group 16">
<g data-name="Group 13">
<path class="cls-2" transform="translate(-574.91 -314.66)" d="m973.06 382.75a12 12 0 1 1 21.64 7.05c-1.71 2.57-6.15 5.48-6.15 7.22v2a0.71 0.71 0 0 1-0.71 0.72h-5.62a0.72 0.72 0 0 1-0.72-0.72v-2c0-1.74-4.43-4.65-6.14-7.22a11.89 11.89 0 0 1-2.3-7.05z" data-name="Path 7"/>
</g>
<g data-name="Group 14">
<path class="cls-1" transform="translate(-574.91 -314.66)" d="M986.39,399.53a78.15,78.15,0,0,1,.15-9.31,14,14,0,0,1-3,0,78.15,78.15,0,0,1,.16,9.31h-.21a80.67,80.67,0,0,0-.17-9.33c-3.55-.49-5.14-2.5-5.42-4.4a2.63,2.63,0,0,1,.9-2.62,1.78,1.78,0,0,1,1.46-.15,3.72,3.72,0,0,1,2.15,2,15.24,15.24,0,0,1,1.11,5,13.14,13.14,0,0,0,3.07,0,15.51,15.51,0,0,1,1.12-5,3.75,3.75,0,0,1,2.15-2,1.78,1.78,0,0,1,1.46.15,2.63,2.63,0,0,1,.9,2.62c-.29,1.9-1.87,3.91-5.42,4.4a78.49,78.49,0,0,0-.17,9.33Zm4-16.39a1.89,1.89,0,0,0-.53.08,3.52,3.52,0,0,0-2,1.84,15.13,15.13,0,0,0-1.08,4.91c3.4-.49,4.92-2.4,5.19-4.21a2.49,2.49,0,0,0-.8-2.42,1.54,1.54,0,0,0-.76-.2Zm-10.78,0a1.54,1.54,0,0,0-.76.2,2.47,2.47,0,0,0-.8,2.41c.27,1.81,1.79,3.73,5.19,4.22a15.33,15.33,0,0,0-1.08-4.91,3.55,3.55,0,0,0-2-1.84,1.89,1.89,0,0,0-.53-.08Z" data-name="Path 8"/>
</g>
<g data-name="Group 15">
<path class="cls-2" transform="translate(-574.91 -314.66)" d="m988.84 397.87h-7.62v3.63a3.1 3.1 0 0 0 0.49 1.67 3.26 3.26 0 0 0 2.76 1.52h1.12a3.26 3.26 0 0 0 2.76-1.52 3.1 3.1 0 0 0 0.49-1.67z" data-name="Path 9"/>
</g>
</g>
<line class="cls-1" x1="410.12" x2="410.12" y1="34.63" y2="41.79" data-name="Line 24"/>
<line class="cls-1" x1="436.47" x2="431.41" y1="45.55" y2="50.61" data-name="Line 25"/>
<line class="cls-1" x1="447.39" x2="440.23" y1="71.9" y2="71.9" data-name="Line 26"/>
<line class="cls-1" x1="436.47" x2="431.41" y1="98.25" y2="93.19" data-name="Line 27"/>
<line class="cls-1" x1="410.12" x2="410.12" y1="109.16" y2="102.01" data-name="Line 28"/>
<line class="cls-1" x1="383.77" x2="388.83" y1="98.25" y2="93.19" data-name="Line 29"/>
<line class="cls-1" x1="372.86" x2="380.01" y1="71.9" y2="71.9" data-name="Line 30"/>
<line class="cls-1" x1="383.77" x2="388.83" y1="45.55" y2="50.61" data-name="Line 31"/>
</g>
<path class="cls-3" transform="translate(-574.91 -314.66)" d="m1309.3 445.36h-195.27a24 24 0 0 1-24-24.07 24 24 0 0 1 24-24.07h72.74a31.72 31.72 0 0 0 31.66-31.77 31.72 31.72 0 0 0-31.66-31.78h-449.46c-10.29 0-19.15 7.94-19.63 18.25a19.15 19.15 0 0 0 18.17 20.08h0.92 80.12a28.29 28.29 0 0 1 28.23 28.34 28.28 28.28 0 0 1-28.23 28.33h-153.33a38.78 38.78 0 0 0-38.7 38.85 38.77 38.77 0 0 0 38.7 38.85h150.77a23 23 0 0 1 22.92 23 23 23 0 0 1-22.92 23h-113.3a30.35 30.35 0 0 0-30.3 30.4 30.36 30.36 0 0 0 30.3 30.41h522.14a30.35 30.35 0 0 0 30.29-30.41 30.35 30.35 0 0 0-30.29-30.41h-132.54a23 23 0 0 1-22.92-23 23 23 0 0 1 22.92-23h218.67a30.47 30.47 0 0 0 30.4-30.52 30.46 30.46 0 0 0-30.4-30.48z" data-name="Path 10"/>
<g data-name="Group 19">
<path class="cls-2" transform="translate(-574.91 -314.66)" d="m785.82 422.73a23.53 23.53 0 1 1 12.49 20.77l-5.49 2.75 1.51-5.42a23.43 23.43 0 0 1-8.51-18.1z" data-name="Path 11"/>
<g data-name="Group 18">
<circle class="cls-4" cx="234.43" cy="108.07" r="11.66" data-name="Ellipse 5"/>
<path class="cls-5" transform="translate(-574.91 -314.66)" d="m801.68 431.52a11.66 11.66 0 1 0 7.66-20.45v11.66z" data-name="Path 12"/>
</g>
</g>
</g>
<g data-name="Group 30">
<g data-name="Group 24">
<path class="cls-2" transform="translate(-574.91 -314.66)" d="M658.5,630.44c-.83-6.79-9.33-11.36-8.6-18.16.36-3.37,3-6,4.05-9.25,1.81-5.43-1-11.21-3.8-16.2s-5.76-10.63-4.23-16.14c1.67-6,12.65-10.11,17.22-14.38s5.39-10.42,8.11-15.78c2.8-5.53,8.94-11,15-12.74a8.45,8.45,0,0,1,9.83,3.58,17.28,17.28,0,0,1,2.34,9.44,26.72,26.72,0,0,1-3.68,13.25c-2.8,4.76-7.1,8.7-8.85,13.94-2,5.89-3.27,11.25-1.45,18.37,3.32,13-1.3,25.14-5.23,26.73-11.1,4.5-15.5,5.75-20.66,17.34" data-name="Path 13"/>
<path class="cls-1" transform="translate(-574.91 -314.66)" d="m686.16 535.45c-3.14 4.46-8.34 15.86-10.2 21a338.13 338.13 0 0 0-20.21 118.64" data-name="Path 14"/>
<g data-name="Group 21">
<path class="cls-2" transform="translate(-574.91 -314.66)" d="M629.82,661.17c-2.6-5.2-7-8.27-11.31-10.56-4.56-2.43-9.43-5.79-11.26-10.86a39,39,0,0,0-1.67-5c-1.38-2.63-4.17-4.19-6.89-5.37s-5.64-2.18-7.82-4.19a10.69,10.69,0,0,1-3.37-7c-.18-2.58.59-5.28-.25-7.73-.94-2.73-3.59-4.42-5.71-6.39-4.16-3.88-6.77-10.38-6-16.07,1.08-8,8.67-8.68,15.07-6,4,1.68,7.56,4.27,11.66,5.66,3.51,1.2,7.32,1.48,10.68,3a15.56,15.56,0,0,1,8.25,9.47c1,3.2.87,6.64,1.66,9.89a18.74,18.74,0,0,0,3.3,6.88c4.44,5.76,8.94,12.08,9.29,19.71a47.44,47.44,0,0,1-5.63,24.59" data-name="Path 15"/>
<path class="cls-1" transform="translate(-574.91 -314.66)" d="m586.15 589.27c30.08 20.47 44.67 59.87 47.13 97.59" data-name="Path 16"/>
<path class="cls-1" transform="translate(-574.91 -314.66)" d="m588.93 622.73s15.44 0 28.47 3.31" data-name="Path 17"/>
<path class="cls-1" transform="translate(-574.91 -314.66)" d="m611.28 591.73c3.19 11.65 1.64 26.31 1.64 26.31a156.56 156.56 0 0 0-25.35-3.04" data-name="Path 18"/>
<path class="cls-1" transform="translate(-574.91 -314.66)" d="M578,599.34s13-.37,21.34,1" data-name="Path 19"/>
<path class="cls-1" transform="translate(-574.91 -314.66)" d="M606.73,638.06s9.89.68,17.48,3.85c0,0,5.29-14.62,2.22-29.68" data-name="Path 20"/>
</g>
<g data-name="Group 22">
<path class="cls-2" transform="translate(-574.91 -314.66)" d="M646,644.55c9-6.94,17.66-17.49,18.84-28.83a35.35,35.35,0,0,0-1.65-14.83c-1.64-4.84-5.21-9.06-6.28-14-2-9.14,5-19-.77-27.46-2-2.91-5.18-4.74-7.71-7.19-5.83-5.66-5.69-14.38-10.7-19.89s-14.24-9-21.67-8.78c-7.83.26-16.27,5.85-16.22,13.7,0,6.2,5.1,11.08,7.58,16.77a21.31,21.31,0,0,1,.34,15.93c-2.37,6.14-7.71,12.24-5.37,18.4,2.21,5.82,12.72,9.81,16.37,14.32,7,8.63-4.94,17.26,6,23.61,5.27,3.07,18.05,6.05,21.28,18.28" data-name="Path 21"/>
<path class="cls-1" transform="translate(-574.91 -314.66)" d="m604.77 576s22.48 8.16 32.49 15.71" data-name="Path 22"/>
<path class="cls-1" transform="translate(-574.91 -314.66)" d="m608.86 565.46s18.35 6.81 24.65 11.5" data-name="Path 23"/>
<path class="cls-1" transform="translate(-574.91 -314.66)" d="m641.41 538.77s-9.17 14.14-11 27.83" data-name="Path 24"/>
<path class="cls-1" transform="translate(-574.91 -314.66)" d="m603.85 547.77s15.46 2.66 22.58 7.1" data-name="Path 25"/>
<path class="cls-1" transform="translate(-574.91 -314.66)" d="m608.86 525.22s8.58 6.66 14.12 20.58c18.43 46.28 22.58 88.7 25.73 139.28" data-name="Path 26"/>
<path class="cls-1" transform="translate(-574.91 -314.66)" d="m639.37 601.64s4.1-16.33 19-36.18" data-name="Path 27"/>
<path class="cls-1" transform="translate(-574.91 -314.66)" d="m657.81 573.46c-10 15.59-17.06 35.55-17.06 35.55s-15.48-9.14-31-13.18" data-name="Path 28"/>
<path class="cls-1" transform="translate(-574.91 -314.66)" d="m644.13 631.63s9.41-19.88 19-30.74" data-name="Path 29"/>
</g>
<g data-name="Group 23">
<path class="cls-2" transform="translate(-574.91 -314.66)" d="M670,661.17c-.12-7.52-5.62-11.44-7.28-17.73-1-3.79-1-8,.83-11.46s5.2-5.9,6.19-9.6-.76-7.65-1.17-11.52A17.05,17.05,0,0,1,678.12,594c2.55-1.16,5.37-1.68,7.84-3,4-2.18,6.19-6.35,9.88-8.87A38,38,0,0,1,710,576.37a17.43,17.43,0,0,1,8.34.07,8.47,8.47,0,0,1,5.87,5.53c1.21,4.48-2.4,8.7-5.64,12s-6.65,7.84-5,12.19c.52,1.36,1.49,2.5,2.1,3.81,3.1,6.7-2.69,12.3-8.3,15-3,1.45-6.12,2.57-8.8,4.5-4.09,2.93-4.6,6.53-5.2,11.17a10.88,10.88,0,0,1-6.64,9.13c-3.31,1.54-11.35,2.56-16.77,11.32" data-name="Path 30"/>
<path class="cls-1" transform="translate(-574.91 -314.66)" d="m708.63 586.73c-6.75 5.71-21.37 23-26.73 35.32-9.11 21-13.24 37.9-13.79 60.77" data-name="Path 31"/>
<path class="cls-1" transform="translate(-574.91 -314.66)" d="m668.11 625.68s1.48 14.81 4.72 21.88" data-name="Path 32"/>
<path class="cls-1" transform="translate(-574.91 -314.66)" d="m675.79 595.36s1.3 20.68 4.57 30.32c0 0 16-10.62 35.75-14.54" data-name="Path 33"/>
<path class="cls-1" transform="translate(-574.91 -314.66)" d="m688.37 589.55a89.64 89.64 0 0 0 2.75 17.15 106.2 106.2 0 0 1 23.34-7.4" data-name="Path 34"/>
<path class="cls-1" transform="translate(-574.91 -314.66)" d="m686.66 613.28s13.34-7.08 26.5-9.28" data-name="Path 35"/>
<path class="cls-1" transform="translate(-574.91 -314.66)" d="m675.68 638.06a55.45 55.45 0 0 1 22.89-8.51" data-name="Path 36"/>
</g>
<path class="cls-4" transform="translate(-574.91 -314.66)" d="M619.25,671v20.29c0,45,13.23,73.88,13.23,73.88h40.95s13.23-28.93,13.23-73.88V671Z" data-name="Path 37"/>
</g>
<g data-name="Group 29">
<g data-name="Group 25">
<path class="cls-2" transform="translate(-574.91 -314.66)" d="M1273.25,650.24c-7.21-7.26-14.12-18.31-15.06-30.18a47.49,47.49,0,0,1,1.32-15.53c1.31-5.06,4.16-9.49,5-14.68,1.58-9.57-4-19.84.62-28.75,1.59-3.05,6.61-4.47,8.64-7,3.63-4.62,3.35-11.5,5.57-17.06,3.39-8.51,10.53-13.77,17.83-13.45,6.26.27,13,6.13,13,14.34,0,6.5-4.08,11.6-6.06,17.56a28.69,28.69,0,0,0-.27,16.67c1.89,6.43,6.16,12.82,4.29,19.27-1.76,6.1-10.17,10.27-13.09,15-5.57,9,4,18.07-4.76,24.72-4.21,3.21-14.43,6.33-17,19.13" data-name="Path 38"/>
<path class="cls-1" transform="translate(-574.91 -314.66)" d="m1288.8 556.35s-2.17-14.36-6.75-24.48" data-name="Path 39"/>
<path class="cls-1" transform="translate(-574.91 -314.66)" d="m1302.9 567.43s-14.67 7.14-19.7 12.05" data-name="Path 40"/>
<path class="cls-1" transform="translate(-574.91 -314.66)" d="m1278.3 540.18s5.87 14.11 7.33 28.45" data-name="Path 41"/>
<path class="cls-1" transform="translate(-574.91 -314.66)" d="m1306.9 548.92s-12.36 2.78-18.06 7.43" data-name="Path 42"/>
<path class="cls-1" transform="translate(-574.91 -314.66)" d="m1302.9 525.3s-6.86 7-11.29 21.55c-14.73 48.46-18 92.87-20.56 145.84" data-name="Path 43"/>
<path class="cls-1" transform="translate(-574.91 -314.66)" d="m1263.8 575.82c8 16.31 13.63 37.21 13.63 37.21s12.38-9.57 24.79-13.8" data-name="Path 44"/>
<path class="cls-1" transform="translate(-574.91 -314.66)" d="m1274.7 636.72s-7.53-20.82-15.2-32.19" data-name="Path 45"/>
</g>
<g data-name="Group 26">
<path class="cls-2" transform="translate(-574.91 -314.66)" d="M1238,679.15c.12-8.58,5.7-13.06,7.39-20.23,1-4.33,1-9.13-.84-13.09s-5.28-6.73-6.28-11,.76-8.73,1.18-13.15c.74-7.82-3.37-15.93-9.73-19.2-3-1.55-6.21-2.22-8.91-4.34s-4.53-4.75-6.87-7c-6.27-6.12-22-15.15-29.32-5.82a11,11,0,0,0-2,5,20.54,20.54,0,0,0,3.42,15.4c3,4.05,7.72,6.21,11.66,9.18,2.66,2,4.42,4,4.56,7.44.17,3.85-1.48,7.58-.07,11.38,2,5.31,2.86,6.15,6.76,9.29,4.15,3.35,4.66,7.45,5.27,12.75.56,4.91,2.72,8.33,6.74,10.42,3.37,1.76,11.53,2.92,17,12.92" data-name="Path 46"/>
<path class="cls-1" transform="translate(-574.91 -314.66)" d="m1198.8 594.19c6.85 6.51 21.69 26.22 27.13 40.32 9.24 23.94 13.45 43.25 14 69.35" data-name="Path 47"/>
<path class="cls-1" transform="translate(-574.91 -314.66)" d="m1239.9 638.64s-1.51 16.9-4.79 25" data-name="Path 48"/>
<path class="cls-1" transform="translate(-574.91 -314.66)" d="m1232.1 604s-1.31 23.6-4.64 34.6" data-name="Path 49"/>
<path class="cls-1" transform="translate(-574.91 -314.66)" d="m1219.3 597.41a113.37 113.37 0 0 1-2.79 19.57 100.12 100.12 0 0 0-23.7-8.45" data-name="Path 50"/>
<path class="cls-1" transform="translate(-574.91 -314.66)" d="m1232.2 652.78a52.92 52.92 0 0 0-23.23-9.72" data-name="Path 51"/>
</g>
<g data-name="Group 27">
<path class="cls-2" transform="translate(-574.91 -314.66)" d="M1286.36,671.19c2.92-5.77,7.57-9,12-11.34,4.76-2.49,9.88-6,12-11.69.7-1.86,1-3.9,2-5.63,1.54-2.91,4.45-4.52,7.28-5.7s5.83-2.13,8.15-4.29a12.66,12.66,0,0,0,3.8-7.82c.32-2.94-.31-6.06.67-8.8,1.1-3.06,3.88-4.82,6.14-6.94a23.79,23.79,0,0,0,7-17.94c-.66-9.16-8.31-10.42-15-7.74-4.13,1.67-7.9,4.4-12.13,5.74-3.62,1.14-7.5,1.23-11,2.8a17,17,0,0,0-8.87,10.28c-1.16,3.59-1.25,7.51-2.23,11.17a22,22,0,0,1-3.72,7.63c-4.8,6.3-10.93,8.6-11.71,17.27-.86,9.6,1.89,24.29,5.58,33" data-name="Path 52"/>
<path class="cls-1" transform="translate(-574.91 -314.66)" d="m1334.6 591.92c-31.6 21.49-48.54 65.5-53.09 108.33" data-name="Path 53"/>
<path class="cls-1" transform="translate(-574.91 -314.66)" d="m1329.9 629.89s-15.65-0.92-29 2" data-name="Path 54"/>
<path class="cls-1" transform="translate(-574.91 -314.66)" d="m1309 593.18c-3.87 13.09-3.1 29.89-3.1 29.89a140.88 140.88 0 0 1 25.86-1.93" data-name="Path 55"/>
<path class="cls-1" transform="translate(-574.91 -314.66)" d="m1342.3 603.91s-13.18-1.23-21.69-0.16" data-name="Path 56"/>
<path class="cls-1" transform="translate(-574.91 -314.66)" d="M1311,646.27s-10.06.16-17.92,3.31c0,0-4.54-11.69-.6-28.66" data-name="Path 57"/>
</g>
<g data-name="Group 28">
<path class="cls-2" transform="translate(-574.91 -314.66)" d="M1253.84,663.71c1.48-9.26,13.77-19.71,13.28-29.12-.57-11.17-8.88-13-1.31-32.23,2.94-7.48,4.52-15.59,2-23.16-3-9.21-10.59-13.2-16.48-19.9-5.53-6.29-6.13-14.77-9.22-22.37-3.19-7.83-10.57-15.9-18.05-18.74a10.11,10.11,0,0,0-12.63,4.11,25.43,25.43,0,0,0-3.54,12.8,39.9,39.9,0,0,0,3.79,18.53c2.66,5.59,6.63,10.36,8.94,16.16,3,7.53-.49,15.05-.39,22.71.17,13.16,12.63,15,16.18,26,1.13,3.49.39,6.77-.5,9.88-1.43,5-2.59,8.74,1.71,13.78,8.65,10.15,14.07,11.76,16.18,21.58" data-name="Path 58"/>
<path class="cls-1" transform="translate(-574.91 -314.66)" d="m1220.2 526.92c6.17 9.25 14.76 26.88 19 42.83 14.3 53.48 17 98.08 13.87 153.52" data-name="Path 59"/>
<path class="cls-1" transform="translate(-574.91 -314.66)" d="m1207.9 542.42a67.89 67.89 0 0 1 26.54 12.88s4.28-14.09 2.24-27.36" data-name="Path 60"/>
<path class="cls-1" transform="translate(-574.91 -314.66)" d="m1210.9 551.76s17.25 6 26.72 12.43" data-name="Path 61"/>
<path class="cls-1" transform="translate(-574.91 -314.66)" d="m1221.7 579.78s15.8 5.9 22.73 11.23c6.24-13.33 6.94-31.71 6.94-31.71" data-name="Path 62"/>
<path class="cls-1" transform="translate(-574.91 -314.66)" d="m1224.6 603.68a79.9 79.9 0 0 1 24.15 9.75s15-17.84 15.64-40.93" data-name="Path 63"/>
<path class="cls-1" transform="translate(-574.91 -314.66)" d="m1249.7 619.81s16.1-17.14 19-37.12" data-name="Path 64"/>
<path class="cls-1" transform="translate(-574.91 -314.66)" d="m1236 628.35s10.64 4.19 16 9.06" data-name="Path 65"/>
</g>
<path class="cls-4" transform="translate(-574.91 -314.66)" d="m1300.2 685.41v17.19c0 38.07-14.92 62.56-14.92 62.56h-46.2s-14.92-24.5-14.92-62.56v-17.19z" data-name="Path 66"/>
</g>
</g>
<line class="cls-6" x1="26.94" x2="725.79" y1="449.9" y2="449.9" data-name="Line 32"/>
<g data-name="Group 43">
<g data-name="Group 39">
<g data-name="Group 34">
<g data-name="Group 33">
<g data-name="Group 32">
<g data-name="Group 31">
<path class="cls-7" transform="translate(-574.91 -314.66)" d="m1160.4 713.41-2.4 36 0.3 11.33-44.38-0.23a2 2 0 0 1-2-2 2 2 0 0 1 1.27-1.83l19.14-8.8 0.65-37.45" data-name="Path 67"/>
<path class="cls-8" transform="translate(-574.91 -314.66)" d="M1110,760c.45-1.42,1.28-3,2.12-3.38l20.3-8.74c11.19,4.54,25.67,1.07,25.67,1.07l2.58,15.28a.92.92,0,0,1-.92.91h-49.41C1109.38,765.16,1110,760.07,1110,760Z" data-name="Path 68"/>
<path class="cls-9" transform="translate(-574.91 -314.66)" d="m1128.1 748.78a24.45 24.45 0 0 1 2.86 4.8" data-name="Path 69"/>
<path class="cls-9" transform="translate(-574.91 -314.66)" d="m1125.5 750.3a20.8 20.8 0 0 1 2.36 4.09" data-name="Path 70"/>
<path class="cls-9" transform="translate(-574.91 -314.66)" d="m1123.4 751.42a30 30 0 0 1 2.21 3.75" data-name="Path 71"/>
</g>
<line class="cls-9" x1="585.55" x2="534.92" y1="447.2" y2="446.94" data-name="Line 33"/>
<path class="cls-9" transform="translate(-574.91 -314.66)" d="M1159,754.39s-11.89.24-12.91,7.4" data-name="Path 72"/>
<path class="cls-9" transform="translate(-574.91 -314.66)" d="m1116.3 754.85s3.28 4.66 3.93 6.81" data-name="Path 73"/>
</g>
</g>
</g>
<path class="cls-10" transform="translate(-574.91 -314.66)" d="m1126.6 557.93s-1.19 98.44 2.84 184.53h33.45s4.53-112.91 4.26-153.7c1.44-7.39 3.6-17.83 2.28-29.72" data-name="Path 74"/>
<path class="cls-11" transform="translate(-574.91 -314.66)" d="m1156.9 742.46s4.53-112.91 4.25-153.7" data-name="Path 75"/>
<g data-name="Group 38">
<g data-name="Group 37">
<g data-name="Group 36">
<g data-name="Group 35">
<path class="cls-7" transform="translate(-574.91 -314.66)" d="m1208.4 705.74 9.14 34.89 2.45 11-43.61 8.22a2 2 0 0 1-2.29-1.56 1.94 1.94 0 0 1 0.9-2l17.11-12.29-11.13-36" data-name="Path 76"/>
<path class="cls-12" transform="translate(-574.91 -314.66)" d="m1172.4 760.17c0.17-1.48 0.68-3.2 1.44-3.72l18.26-12.45c11.85 2.32 25.4-3.84 25.4-3.84l5.45 14.51a0.92 0.92 0 0 1-0.73 1.07l-48.51 9.4c-0.98 0.2-1.32-4.92-1.31-4.97z" data-name="Path 77"/>
<path class="cls-13" transform="translate(-574.91 -314.66)" d="m1188 745.7a24.63 24.63 0 0 1 3.72 4.18" data-name="Path 78"/>
<path class="cls-13" transform="translate(-574.91 -314.66)" d="m1185.8 747.69a21 21 0 0 1 3.09 3.56" data-name="Path 79"/>
<path class="cls-13" transform="translate(-574.91 -314.66)" d="m1183.9 749.2a28.81 28.81 0 0 1 2.88 3.26" data-name="Path 80"/>
</g>
<line class="cls-13" x1="647.37" x2="597.63" y1="437.73" y2="447.11" data-name="Line 34"/>
<path class="cls-13" transform="translate(-574.91 -314.66)" d="m1219.5 745.32s-11.62 2.5-11.27 9.73" data-name="Path 81"/>
<path class="cls-13" transform="translate(-574.91 -314.66)" d="m1177.6 753.9s4.11 4 5.15 5.94" data-name="Path 82"/>
</g>
</g>
</g>
<path class="cls-14" transform="translate(-574.91 -314.66)" d="m1158.8 557.93s-2.9 52.7 4.38 97.88c5.48 34 20.65 84.11 20.65 84.11l34.56-7.5s-11.7-49.16-16.34-75.42c-4.76-27-3.44-51.9-2.62-67.08a16.21 16.21 0 0 1 0.29-2.31c1.42-7.3 3.31-17.29 2-28.57" data-name="Path 83"/>
<path class="cls-11" transform="translate(-574.91 -314.66)" d="m1214.1 733.34s-12.19-50.08-16.83-76.35c-4.76-27-3.43-51.9-2.62-67.08a18.23 18.23 0 0 1 0.29-2.31c1.43-7.3 3.32-17.28 2.06-28.57" data-name="Path 84"/>
<path class="cls-11" transform="translate(-574.91 -314.66)" d="m1158.8 557.93s-0.29 58 2.66 91a144.09 144.09 0 0 0 3.32 20.21" data-name="Path 85"/>
<path class="cls-11" transform="translate(-574.91 -314.66)" d="m1182.2 562.61s4.17 7.61 14.84 11.91" data-name="Path 86"/>
<path class="cls-11" transform="translate(-574.91 -314.66)" d="m1126.1 572.36s11.21-3.14 13.85-11.57" data-name="Path 87"/>
<line class="cls-11" x1="554.19" x2="588.23" y1="420.93" y2="420.93" data-name="Line 35"/>
<line class="cls-11" x1="607.25" x2="641.95" y1="419.23" y2="411.89" data-name="Line 36"/>
</g>
<g data-name="Group 40">
<path class="cls-15" transform="translate(-574.91 -314.66)" d="m1149.1 447.35-1.21 10.84s1 4.67 7.66 5.41c8.11 0.9 12.38-6 12.38-6l-2.41-11.89" data-name="Path 88"/>
<path class="cls-16" transform="translate(-574.91 -314.66)" d="M1146.19,427.17c-1.62.34-3.28,1.36-3.6,3-.17.84.05,1.73-.19,2.55-.35,1.22-1.59,2-2.13,3.13a3.9,3.9,0,0,0-.13,2.65,9.23,9.23,0,0,0,1.17,2.43,8.87,8.87,0,0,0,2.65,2.87,3.74,3.74,0,0,0,3.74.23,4.58,4.58,0,0,0,1.27-1.21,10.32,10.32,0,0,0,2-5.43" data-name="Path 89"/>
<path class="cls-15" transform="translate(-574.91 -314.66)" d="m1144.6 432.39s-4.77 15.16 2 19.14c6.14 3.62 16.41-2 17-3.93s3.32-18.23-0.58-19.45c-6.94-2.15-16.38-2.27-18.42 4.24z" data-name="Path 90"/>
<path class="cls-17" transform="translate(-574.91 -314.66)" d="m1147.5 446.92s0.42 2.44 2.56 2.19a2.75 2.75 0 0 0 1.87-3.37" data-name="Path 91"/>
<path class="cls-18" transform="translate(-574.91 -314.66)" d="m1148.7 453.06s6.44 1.68 11.24-2.56" data-name="Path 92"/>
<path class="cls-16" transform="translate(-574.91 -314.66)" d="M1143.09,426.3a6,6,0,0,1-.75-5,6.48,6.48,0,0,1,2.94-3.47c1.52-.9,3.55-1.61,5.28-1.07,1.51.47,2.53,1.89,4.08,2.25a9.73,9.73,0,0,0,2.64,0,5.16,5.16,0,0,1,4.84,2.37c.58,1.12.6,2.52,1.43,3.47s2.06,1.12,3.11,1.67c3,1.57,5.22,6,4.07,9.3-.3.84-.78,1.6-1.1,2.43-1.16,3-.17,8.89-4.6,9.54a3.1,3.1,0,0,1-2.1-.2,2.66,2.66,0,0,1-1-1.83,8.74,8.74,0,0,1-.12-2.6c.13-.9.45-1.58-.2-2.41-.36-.47-.91-.79-1.23-1.29-.92-1.46.27-3.36-.56-4.83a7.84,7.84,0,0,0-4.25-3.32c-2.25-.76-4.68-.31-6.87-1.13a11.48,11.48,0,0,1-5.39-3.5C1143.25,426.53,1143.17,426.42,1143.09,426.3Z" data-name="Path 93"/>
<path class="cls-15" transform="translate(-574.91 -314.66)" d="M1160,442.27c.57-1.42,1.58-3.14,3.16-2.17a3.11,3.11,0,0,1,1.09,1.78c.72,2.35-1,6-3.28,5.64-1.12-.16-1.75-1.5-2.21-2.6" data-name="Path 94"/>
<path class="cls-18" transform="translate(-574.91 -314.66)" d="M1147.73,437.82s-2.63,4.19-2.36,5.34,3,.52,3,.52" data-name="Path 95"/>
<path class="cls-19" transform="translate(-574.91 -314.66)" d="m1145.1 436.69-0.26 1" data-name="Path 96"/>
<path class="cls-20" transform="translate(-574.91 -314.66)" d="M1147,434.77a2,2,0,0,0-2.73-.36l-.08.07" data-name="Path 97"/>
<path class="cls-19" transform="translate(-574.91 -314.66)" d="M1153.65,438.56c-.07.33-.14.66-.2,1" data-name="Path 98"/>
<path class="cls-20" transform="translate(-574.91 -314.66)" d="m1152.8 435.54s1.82-0.65 3.75 1.48" data-name="Path 99"/>
</g>
<g data-name="Group 42">
<path class="cls-15" transform="translate(-574.91 -314.66)" d="m1114.9 463.52s-19.63 7.16-26 6.22c-12.41-1.81-42.66-11.55-42.66-11.55l-9.81 13.62s33.53 20.47 50.64 21.77c15 1.13 41.49-7.83 41.49-7.83" data-name="Path 100"/>
<path class="cls-12" transform="translate(-574.91 -314.66)" d="M1147.9,458.19c-5-1.42-13.05-.46-23.51,1.49a157.34,157.34,0,0,0-18.92,5.36l8.72,26.78,22.51-5.59" data-name="Path 101"/>
<path class="cls-12" transform="translate(-574.91 -314.66)" d="m1167.9 457.63s-4.78 4.6-10.92 4.6c-7.68 0-9.12-4-9.12-4s-17.72 7.06-20.23 28.83c-1.6 13.86-2.29 76.61-2.29 76.61h77.09s3.75-97.86-34.53-106.04z" data-name="Path 102"/>
<g data-name="Group 41">
<path class="cls-21" transform="translate(-574.91 -314.66)" d="m1156 576.9 36.12-12-16-48.69-36.12 12z" data-name="Path 103"/>
<path class="cls-22" transform="translate(-574.91 -314.66)" d="M1168.07,520.26,1147.78,527h0l-.91-2.73a.82.82,0,0,1,.52-1l18.73-6.22a.82.82,0,0,1,1,.52l.91,2.73Z" data-name="Rectangle 1"/>
<path class="cls-22" transform="translate(-574.91 -314.66)" d="m1159.2 517.41a3.23 3.23 0 1 0-2.35 3.92l0.24-0.07a3.11 3.11 0 0 0 2.11-3.85zm-2.68 2.15a1.2 1.2 0 1 1 0.84-1.54 1.25 1.25 0 0 1-0.84 1.54z" data-name="Path 104"/>
</g>
<path class="cls-15" transform="translate(-574.91 -314.66)" d="m1183.8 493.76s6.5 23.82 5.13 27.68c-3.24 9.08-25.71 31-25.71 31l11.35 16s34.12-22.08 40.24-38.79c5-13.53-5-42.71-5-42.71" data-name="Path 105"/>
<path class="cls-12" transform="translate(-574.91 -314.66)" d="m1167.9 457.63s25.31-1.1 36.35 15.4c7.7 11.5 9.88 26.88 9.88 26.88l-29 5-7.12-21.67" data-name="Path 106"/>
<line class="cls-13" x1="610.26" x2="604.23" y1="190.25" y2="171.87" data-name="Line 37"/>
<path class="cls-13" transform="translate(-574.91 -314.66)" d="m1127.7 487s0.89-9.13 4.67-14.49" data-name="Path 107"/>
<path class="cls-13" transform="translate(-574.91 -314.66)" d="m1144.6 457.63s0.2 8.05 10.66 8.05c13.26 0 17.73-7.9 17.73-7.9" data-name="Path 108"/>
<path class="cls-15" transform="translate(-574.91 -314.66)" d="M1170.54,545.94c-4.9,4.85-20.48,17.39-20.09,18.75s6.24-2.7,6.35-1.52-8.47,8-7.72,9.26c1,1.7,9.43-5.78,9.43-5.78s-8.81,8.64-7.51,9.86c.93.86,8-5.43,10.94-7.49-3,2.65-7.22,7.51-6.24,8.38s5.84-3.31,9.75-6.31c-2.27,2.1-6.17,6.15-5.3,7s13.42-8.49,24.9-17.74" data-name="Path 109"/>
</g>
</g>
<g data-name="Group 55">
<g data-name="Group 50">
<g data-name="Group 46">
<g data-name="Group 45">
<g data-name="Group 44">
<path class="cls-23" transform="translate(-574.91 -314.66)" d="m770.27 713.42-2.33 36-0.3 11.32 44.36-0.24a2 2 0 0 0 2-2 2 2 0 0 0-1.26-1.83l-19.15-8.8 4.08-37.45" data-name="Path 110"/>
<path class="cls-24" transform="translate(-574.91 -314.66)" d="m815.91 760c-0.45-1.42-1.28-3-2.12-3.38l-20.3-8.74c-11.19 4.54-25.67 1.07-25.67 1.07l-2.59 15.28a0.92 0.92 0 0 0 0.93 0.91h49.41c1 0.02 0.36-5.07 0.34-5.14z" data-name="Path 111"/>
<path class="cls-25" transform="translate(-574.91 -314.66)" d="m797.88 748.78a23.51 23.51 0 0 0-2.86 4.8" data-name="Path 112"/>
<path class="cls-25" transform="translate(-574.91 -314.66)" d="m800.44 750.31a19.93 19.93 0 0 0-2.35 4.08" data-name="Path 113"/>
<path class="cls-25" transform="translate(-574.91 -314.66)" d="m802.6 751.42a30 30 0 0 0-2.21 3.75" data-name="Path 114"/>
</g>
<line class="cls-25" x1="190.59" x2="241.22" y1="447.2" y2="446.94" data-name="Line 38"/>
<path class="cls-25" transform="translate(-574.91 -314.66)" d="M766.91,754.39s11.89.24,12.91,7.4" data-name="Path 115"/>
<path class="cls-25" transform="translate(-574.91 -314.66)" d="m809.63 754.85s-3.28 4.66-3.93 6.81" data-name="Path 116"/>
</g>
</g>
<path class="cls-26" transform="translate(-574.91 -314.66)" d="m791 558.86c5 60 8.54 184.29 8.54 184.29h-38.17s-3.44-77.36-8.66-139.5c-16.81-27.83-15.5-58-17.4-62" data-name="Path 117"/>
<path class="cls-27" transform="translate(-574.91 -314.66)" d="m766.59 743.15s-3.53-89.4-10.22-148" data-name="Path 118"/>
<g data-name="Group 49">
<g data-name="Group 48">
<g data-name="Group 47">
<path class="cls-23" transform="translate(-574.91 -314.66)" d="m708.89 713.42 3.1 36-0.3 11.32 44.39-0.23a2 2 0 0 0 1.95-2 2 2 0 0 0-1.27-1.83l-19.14-8.8-1.36-37.45" data-name="Path 119"/>
<path class="cls-24" transform="translate(-574.91 -314.66)" d="M760,760c-.46-1.42-1.29-3-2.13-3.38l-20.3-8.74c-11.18,4.54-25.66,1.07-25.66,1.07l-2.59,15.28a.93.93,0,0,0,.93.91h49.41C760.62,765.16,760,760.07,760,760Z" data-name="Path 120"/>
<path class="cls-25" transform="translate(-574.91 -314.66)" d="m741.94 748.78a23.51 23.51 0 0 0-2.86 4.8" data-name="Path 121"/>
<path class="cls-25" transform="translate(-574.91 -314.66)" d="m744.49 750.31a20.89 20.89 0 0 0-2.35 4.08" data-name="Path 122"/>
<path class="cls-25" transform="translate(-574.91 -314.66)" d="m746.65 751.42a29.91 29.91 0 0 0-2.2 3.75" data-name="Path 123"/>
</g>
<line class="cls-25" x1="134.65" x2="185.27" y1="447.2" y2="446.94" data-name="Line 39"/>
<path class="cls-25" transform="translate(-574.91 -314.66)" d="M711,754.39s11.89.24,12.91,7.4" data-name="Path 124"/>
<path class="cls-25" transform="translate(-574.91 -314.66)" d="m753.68 754.85s-3.28 4.66-3.92 6.81" data-name="Path 125"/>
</g>
</g>
<path class="cls-26" transform="translate(-574.91 -314.66)" d="M710.06,553.78a214.48,214.48,0,0,0,1,42.84c-3.26,66-3,146.53-3,146.53h38.21S757,600.67,760.7,552.69" data-name="Path 126"/>
<path class="cls-27" transform="translate(-574.91 -314.66)" d="M716.59,553.78a213.74,213.74,0,0,0,.95,42.84c-3.27,66-3,146.53-3,146.53" data-name="Path 127"/>
<path class="cls-27" transform="translate(-574.91 -314.66)" d="m754.54 630s5.81-51.37 6.27-68.19" data-name="Path 128"/>
<path class="cls-27" transform="translate(-574.91 -314.66)" d="M716.16,580.32s11,.85,17.05-14.72" data-name="Path 129"/>
<path class="cls-27" transform="translate(-574.91 -314.66)" d="M759.59,580.16s3.36-.92,3.72-2.12,1.4-15.38,1.4-15.38" data-name="Path 130"/>
<path class="cls-27" transform="translate(-574.91 -314.66)" d="M778.73,565.6s-.16,12.62,13.86,14.56" data-name="Path 131"/>
</g>
<g data-name="Group 51">
<path class="cls-23" transform="translate(-574.91 -314.66)" d="M748.24,443.54l-4.18,16.57s15.56,10.07,22.33.29l-1-11.47Z" data-name="Path 132"/>
<path class="cls-23" transform="translate(-574.91 -314.66)" d="m768.15 429.08s6.89 16.28 0.64 21.47c-3 2.45-10.68 3.21-14.08 0.5-2.52-2-6.26-14.47-4.83-16.66 5.47-8.33 18.27-5.31 18.27-5.31z" data-name="Path 133"/>
<path class="cls-28" transform="translate(-574.91 -314.66)" d="m764.89 436.72s3.13 3.83 3 5-2.84 1.61-2.84 1.61" data-name="Path 134"/>
<path class="cls-17" transform="translate(-574.91 -314.66)" d="m768.2 444.41-7.33 1.87a4.8 4.8 0 0 0 5.8 2.38c2.82-0.92 1.53-4.25 1.53-4.25z" data-name="Path 135"/>
<path class="cls-19" transform="translate(-574.91 -314.66)" d="M767.36,435.27l.38.93" data-name="Path 136"/>
<path class="cls-20" transform="translate(-574.91 -314.66)" d="m765.19 433.6a2 2 0 0 1 2.67-0.69h0.09" data-name="Path 137"/>
<path class="cls-19" transform="translate(-574.91 -314.66)" d="M759.11,438.18c.1.32.21.64.32,1" data-name="Path 138"/>
<path class="cls-20" transform="translate(-574.91 -314.66)" d="M759.56,435.09s-1.89-.42-3.54,1.94" data-name="Path 139"/>
<path class="cls-16" transform="translate(-574.91 -314.66)" d="M743.54,441.1a17.12,17.12,0,0,0-.5-1.73c-.5-1.37-1.25-2.58-1.79-3.93a7,7,0,0,1,2.09-7.85,10.2,10.2,0,0,0,1.21-1,10,10,0,0,0,1.55-3.09,4.32,4.32,0,0,1,1.77-2.14c1.92-1,4.48.36,6.39-.66a8.62,8.62,0,0,0,1.15-.83c2.74-2.08,5.86-1.59,8.86-.51a9.22,9.22,0,0,1,3,2c1.28,1,3,.92,4.32,1.9s1.69,2.89,1.7,4.58a4.1,4.1,0,0,1-.28,1.8,3.44,3.44,0,0,1-1.72,1.54c-1.72.78-3.66.48-5.48.34s-3.85-1.39-5.59-.74-2.13,2.72-4.22,2.88c-.83.06-1.83-.09-2.32.58s-.26,2-.7,2.85a19.94,19.94,0,0,1-1.67,2.31c-1.06,1.5-2.56,2.53-2,4.49.37,1.36,1.88,3.54,1.26,5-.41.95-2.5.94-4.09-.27s-2.11-3.6-2.51-5.48C743.83,442.43,743.7,441.76,743.54,441.1Z" data-name="Path 140"/>
<path class="cls-23" transform="translate(-574.91 -314.66)" d="M751,441.43c-1.54-2.51-3-2.31-4-1.14-1.27,1.56.47,5.31,1.4,6,1.88,1.44,3.53,1.51,3.88-.12" data-name="Path 141"/>
<path class="cls-29" transform="translate(-574.91 -314.66)" d="M765.65,452.76c-5.77.82-10.92-2.36-10.92-2.36" data-name="Path 142"/>
<circle class="cls-30" cx="193.59" cy="120.61" r="3.08" data-name="Ellipse 6"/>
<path class="cls-30" transform="translate(-574.91 -314.66)" d="m762.64 439.14a3.08 3.08 0 1 1-3.08-3.08 3.08 3.08 0 0 1 3.08 3.08z" data-name="Path 143"/>
<line class="cls-30" x1="187.59" x2="190.74" y1="123.52" y2="121.78" data-name="Line 40"/>
<line class="cls-30" x1="182.16" x2="175.1" y1="126.27" y2="124.88" data-name="Line 41"/>
</g>
<g data-name="Group 54">
<path class="cls-21" transform="translate(-574.91 -314.66)" d="M744.85,457.63s2.6,4.35,12.59,4.72c7.67.28,9-2.23,9-2.23s16.73,3.08,18.64,44.07c1.9,40.56.75,60.64.75,60.64H710.32S706.57,465.81,744.85,457.63Z" data-name="Path 144"/>
<path class="cls-31" transform="translate(-574.91 -314.66)" d="M740.44,459.05s2.75,7,18.67,7.06c10.36.06,14.21-3.53,14.21-3.53" data-name="Path 145"/>
<path class="cls-23" transform="translate(-574.91 -314.66)" d="M821.17,548.64c4.2,5.46,19,19.28,18.4,20.57s-5.83-3.5-6.09-2.35,7.32,9.07,6.41,10.21c-1.23,1.54-8.57-7-8.57-7s7.57,9.75,6.11,10.78c-1,.73-7.15-6.44-9.83-8.89,2.57,3,6.15,8.41,5.07,9.15s-5.35-4.07-8.82-7.56c2,2.38,5.29,6.91,4.32,7.64S816,571,805.87,560.29" data-name="Path 146"/>
<path class="cls-29" transform="translate(-574.91 -314.66)" d="M825.73,562.94v-.65a7.94,7.94,0,0,0,4.77,2.41" data-name="Path 147"/>
<path class="cls-29" transform="translate(-574.91 -314.66)" d="m818.81 563.17a18.69 18.69 0 0 1 3.86 8.63" data-name="Path 148"/>
<path class="cls-12" transform="translate(-574.91 -314.66)" d="m777.21 526.24c9.86 19.34 36.68 44.23 36.68 44.23l17-14.12s-19.73-23.86-25.26-36.89-4.73-26.46-12.11-42.61-27.12-16.73-27.12-16.73" data-name="Path 149"/>
<path class="cls-12" transform="translate(-574.91 -314.66)" d="m766.4 460.12c20.91 17.41 27.43 76.55 27.43 110.35l-22.42 0.51s1.8-54.38 0-75.77a269.51 269.51 0 0 0-5.01-35.09z" data-name="Path 150"/>
<path class="cls-12" transform="translate(-574.91 -314.66)" d="m744.85 457.63c6.27 25.17-0.79 113-0.79 113h-36.49s1.4-62.17 7.78-82.19 29.5-30.81 29.5-30.81z" data-name="Path 151"/>
<g data-name="Group 53">
<path class="cls-14" transform="translate(-574.91 -314.66)" d="m767 565.36-36.12-12 16-48.69 36.12 12z" data-name="Path 152"/>
<g data-name="Group 52">
<path class="cls-22" transform="translate(-574.91 -314.66)" d="M756.9,505.47l18.73,6.22a.82.82,0,0,1,.52,1l-.91,2.73h0L755,508.72h0l.91-2.73a.82.82,0,0,1,1-.52Z" data-name="Rectangle 2"/>
<path class="cls-22" transform="translate(-574.91 -314.66)" d="m767.77 504.05a3 3 0 1 0 2.12 3.85 3.12 3.12 0 0 0-2.12-3.85zm-1.39 4.18a1.42 1.42 0 1 1 1.9-0.86 1.46 1.46 0 0 1-1.89 0.86z" data-name="Path 153"/>
</g>
</g>
<path class="cls-23" transform="translate(-574.91 -314.66)" d="M750.21,527.57c6.85.67,27-.62,27.59.67s-6.54,1.85-5.89,2.83,11.63.87,11.83,2.32c.29,2-11,1.46-11,1.46s12.28,1.15,12,2.92c-.17,1.25-9.59.8-13.21,1.08,4,.2,10.35,1.28,10.14,2.57s-6.62,1.12-11.55,1.25c3.08.2,8.67.88,8.53,2.09s-15.77,1.88-30.51,1.94" data-name="Path 154"/>
<path class="cls-12" transform="translate(-574.91 -314.66)" d="M744.85,457.63s-27.18-.1-35.39,14.22c-12.56,21.91-24.49,69.07-11.8,73.67,11.89,4.3,59.09,2.31,59.09,2.31l.23-22.69s-32-1.13-34.14-4.82,7.26-22.63,7.26-22.63" data-name="Path 155"/>
<path class="cls-13" transform="translate(-574.91 -314.66)" d="m740.8 523.29s-17.55-1.67-18.47-3.82c-1.55-3.64 8.81-23.88 8.81-23.88" data-name="Path 156"/>
<path class="cls-13" transform="translate(-574.91 -314.66)" d="m793 548.29c-1.83-31.78-2.15-55.45-4.26-61.76" data-name="Path 157"/>
</g>
<line class="cls-13" x1="157.57" x2="133.54" y1="233.98" y2="233.34" data-name="Line 42"/>
</g>
<g data-name="Group 69">
<g data-name="Group 62">
<g data-name="Group 58">
<g data-name="Group 57">
<g data-name="Group 56">
<path class="cls-23" transform="translate(-574.91 -314.66)" d="m920.71 713.42-1.21 36 0.3 11.32-44.39-0.23a2 2 0 0 1-1.95-2 2 2 0 0 1 1.27-1.83l19.14-8.8-0.53-37.45" data-name="Path 158"/>
<path class="cls-21" transform="translate(-574.91 -314.66)" d="m871.52 760c0.45-1.42 1.29-3 2.13-3.38l20.35-8.72c11.19 4.54 25.67 1.07 25.67 1.07l2.58 15.28a0.92 0.92 0 0 1-0.92 0.91h-49.47c-0.99 0-0.35-5.09-0.34-5.16z" data-name="Path 159"/>
<path class="cls-31" transform="translate(-574.91 -314.66)" d="m889.55 748.78a23.51 23.51 0 0 1 2.86 4.8" data-name="Path 160"/>
<path class="cls-31" transform="translate(-574.91 -314.66)" d="m887 750.31a20.89 20.89 0 0 1 2.35 4.08" data-name="Path 161"/>
<path class="cls-31" transform="translate(-574.91 -314.66)" d="m884.84 751.42a29.91 29.91 0 0 1 2.2 3.75" data-name="Path 162"/>
</g>
<line class="cls-31" x1="347.03" x2="296.41" y1="447.2" y2="446.94" data-name="Line 43"/>
<path class="cls-31" transform="translate(-574.91 -314.66)" d="M920.53,754.39s-11.89.24-12.91,7.4" data-name="Path 163"/>
<path class="cls-31" transform="translate(-574.91 -314.66)" d="m877.81 754.85s3.28 4.66 3.92 6.81" data-name="Path 164"/>
</g>
</g>
<g data-name="Group 61">
<g data-name="Group 60">
<g data-name="Group 59">
<path class="cls-23" transform="translate(-574.91 -314.66)" d="m977.57 713.42 3.51 36 0.3 11.32-44.38-0.24a2 2 0 0 1-2-2 2 2 0 0 1 1.26-1.83l19.15-8.8-5.27-37.45" data-name="Path 165"/>
<path class="cls-21" transform="translate(-574.91 -314.66)" d="m933.11 760c0.45-1.42 1.29-3 2.12-3.38l20.31-8.74c11.18 4.54 25.66 1.07 25.66 1.07l2.59 15.28a0.92 0.92 0 0 1-0.92 0.91h-49.42c-0.99 0.02-0.36-5.07-0.34-5.14z" data-name="Path 166"/>
<path class="cls-31" transform="translate(-574.91 -314.66)" d="m951.14 748.78a23.51 23.51 0 0 1 2.86 4.8" data-name="Path 167"/>
<path class="cls-31" transform="translate(-574.91 -314.66)" d="m948.58 750.31a19.93 19.93 0 0 1 2.35 4.08" data-name="Path 168"/>
<path class="cls-31" transform="translate(-574.91 -314.66)" d="m946.42 751.42a28.81 28.81 0 0 1 2.21 3.75" data-name="Path 169"/>
</g>
<line class="cls-31" x1="408.62" x2="358" y1="447.2" y2="446.94" data-name="Line 44"/>
<path class="cls-31" transform="translate(-574.91 -314.66)" d="M982.11,754.39s-11.89.24-12.91,7.4" data-name="Path 170"/>
<path class="cls-31" transform="translate(-574.91 -314.66)" d="m939.4 754.85s3.27 4.66 3.92 6.81" data-name="Path 171"/>
</g>
</g>
<path class="cls-32" transform="translate(-574.91 -314.66)" d="M961,548.36l1.31,7.25s5.82,8.08,8.4,22.69c4.38,24.79,14.66,165.28,14.66,165.28H948S924,574.92,920.15,546.7" data-name="Path 172"/>
<path class="cls-32" transform="translate(-574.91 -314.66)" d="m896.66 542.65c-9.9 50.06-9.26 200.93-9.26 200.93h37.74s8.66-186.69 18.24-200.93" data-name="Path 173"/>
<line class="cls-33" x1="372.22" x2="409.99" y1="422.79" y2="422.79" data-name="Line 45"/>
<line class="cls-33" x1="313.21" x2="350.53" y1="422.79" y2="422.79" data-name="Line 46"/>
<path class="cls-33" transform="translate(-574.91 -314.66)" d="m928.28 603.41c-8.13 63.77-10.2 140.17-10.2 140.17" data-name="Path 174"/>
<path class="cls-33" transform="translate(-574.91 -314.66)" d="M962.52,555.89a280,280,0,0,1-68,.53" data-name="Path 175"/>
<path class="cls-33" transform="translate(-574.91 -314.66)" d="m932 630.63s-8-52.8-7.4-72.13" data-name="Path 176"/>
<path class="cls-33" transform="translate(-574.91 -314.66)" d="M920.15,558.5s.32,15.42,1,16.11,4.11,1.22,4.11,1.22" data-name="Path 177"/>
<path class="cls-33" transform="translate(-574.91 -314.66)" d="m956.34 557.06s4.65 7.9 7.16 24.17 16.8 161.92 16.8 161.92" data-name="Path 178"/>
<path class="cls-33" transform="translate(-574.91 -314.66)" d="m944.55 557.8a32.75 32.75 0 0 0 16.23 10.81" data-name="Path 179"/>
<line class="cls-33" x1="364.5" x2="364.5" y1="243.27" y2="236.56" data-name="Line 47"/>
<line class="cls-33" x1="333.24" x2="333.24" y1="242.83" y2="235.5" data-name="Line 48"/>
<path class="cls-33" transform="translate(-574.91 -314.66)" d="m904 557.37s-5.07 8-10.6 8.39" data-name="Path 180"/>
</g>
<g data-name="Group 63">
<path class="cls-23" transform="translate(-574.91 -314.66)" d="M914.35,454.58l-.42,9.36a10.13,10.13,0,0,0,9.64,5c7-.71,9-5.36,9-5.36l-.48-14.4" data-name="Path 181"/>
<path class="cls-23" transform="translate(-574.91 -314.66)" d="m914.88 429.43c-4.17 4.6-9.74 21.55-2.2 25.5 7.94 4.17 17.55 1 20.26-9.91 2.85-11.46-7.1-27.69-18.06-15.59z" data-name="Path 182"/>
<path class="cls-34" transform="translate(-574.91 -314.66)" d="m914.35 456.22s5.7 2.11 13.6-4.19" data-name="Path 183"/>
<path class="cls-35" transform="translate(-574.91 -314.66)" d="m932.07 443.79" data-name="Path 184"/>
<path class="cls-35" transform="translate(-574.91 -314.66)" d="M932.07,443.79l-.07.1" data-name="Path 185"/>
<path class="cls-26" transform="translate(-574.91 -314.66)" d="M931.54,453c-6.42-10.51-5.48-17-5.48-17s-14.47-1-17.11-3.43c.45-5.72,8-10.82,14.28-7.39,10.2-3.72,15.86,5.55,17,10.82,1.43,6.64-3.1,15-8.7,17" data-name="Path 186"/>
<path class="cls-26" transform="translate(-574.91 -314.66)" d="M933.43,426.82c-.85-1.07,0-2.88.77-4a5.6,5.6,0,0,1,6.8-1.64,5.83,5.83,0,0,1,3,6.4c-.58,2.46-2.83,3.61-5.36,3.74a2.71,2.71,0,0,1-2.61-1.11" data-name="Path 187"/>
<path class="cls-26" transform="translate(-574.91 -314.66)" d="M943.11,424.8a2.63,2.63,0,0,1,1.57-2.64,4.53,4.53,0,0,1,5.49,1.3,4.7,4.7,0,0,1-.2,5.68,4.91,4.91,0,0,1-5.58,1.25,2.19,2.19,0,0,1-1.47-1.75" data-name="Path 188"/>
<path class="cls-26" transform="translate(-574.91 -314.66)" d="M950.17,426.73a1.88,1.88,0,0,1,1.45-1.67,3.25,3.25,0,0,1,3.72,1.63,3.39,3.39,0,0,1-.87,4,3.55,3.55,0,0,1-4.12.17,1.61,1.61,0,0,1-.82-1.44" data-name="Path 189"/>
<path class="cls-26" transform="translate(-574.91 -314.66)" d="M955.18,429.31a1.36,1.36,0,0,1,1.5-.47,2.31,2.31,0,0,1,1.65,2.37,2.39,2.39,0,0,1-2,2.09,2.23,2.23,0,0,1-2.12-3.57" data-name="Path 190"/>
<path class="cls-26" transform="translate(-574.91 -314.66)" d="M956.69,432.72l.15,5a.19.19,0,0,0,0,.1.17.17,0,0,0,.1,0l3.6-.62a.93.93,0,0,0,.72-.38.82.82,0,0,0,.06-.38,5.27,5.27,0,0,0-1.38-3.34,9,9,0,0,0-3-2.12" data-name="Path 191"/>
<path class="cls-23" transform="translate(-574.91 -314.66)" d="M926.54,445.06a2.39,2.39,0,0,1,1.87-1.53c2.08-.33,2.78,2.46,2.16,4.44a5.83,5.83,0,0,1-2,3c-1.33,1.09-2.81,1.1-3.27-.65" data-name="Path 192"/>
<path class="cls-28" transform="translate(-574.91 -314.66)" d="m915.23 440.07s-3.13 3.83-3 5 2.84 1.61 2.84 1.61" data-name="Path 193"/>
<path class="cls-17" transform="translate(-574.91 -314.66)" d="m911.92 447.77 7.33 1.86a4.81 4.81 0 0 1-5.8 2.38c-2.82-0.93-1.53-4.24-1.53-4.24z" data-name="Path 194"/>
<path class="cls-19" transform="translate(-574.91 -314.66)" d="M912.75,438.61l-.37.94" data-name="Path 195"/>
<path class="cls-20" transform="translate(-574.91 -314.66)" d="M914.93,437a2,2,0,0,0-2.67-.7l-.09.06" data-name="Path 196"/>
<path class="cls-19" transform="translate(-574.91 -314.66)" d="M921,441.53c-.11.32-.21.64-.32,1" data-name="Path 197"/>
<path class="cls-20" transform="translate(-574.91 -314.66)" d="M920.55,438.44s1.89-.43,3.55,1.93" data-name="Path 198"/>
</g>
<g data-name="Group 68">
<path class="cls-23" transform="translate(-574.91 -314.66)" d="m884.62 493.37s-5.67 10.95-7 12.3c-7.7 7.69-20.09-29.86-20.09-29.86l-15.42 8.81s9.25 40 27.8 48.65 40.22-28.95 40.22-28.95" data-name="Path 199"/>
<g data-name="Group 64">
<path class="cls-23" transform="translate(-574.91 -314.66)" d="M858.62,479c-1.7-6-5.94-22-7.09-22.24s-.17,5.58-1.08,5.25-3-9.09-4.19-9c-1.62.17,1,9,1,9s-.87-1.7-2.23-1.16c-1,.39-.73,2.89-.73,2.89s-1-1.92-2-1.49-.76,3.37-.76,3.37a2,2,0,0,0-1.84-.58c-.93.34-1.64,5.41,3.4,23.39" data-name="Path 200"/>
<path class="cls-36" transform="translate(-574.91 -314.66)" d="M850.9,464.23a29.87,29.87,0,0,1-1.35,4.34,7.8,7.8,0,0,0-.82,4.45" data-name="Path 201"/>
<path class="cls-36" transform="translate(-574.91 -314.66)" d="M847.5,462.74s.76,5.74-.48,5.84-2.66-4.09-2.66-4.09,1.25,5.83-.22,5.74-2.35-4.09-2.35-4.09.94,6.12-.5,5.69c-1-.3-1.83-3.43-1.83-3.43" data-name="Path 202"/>
</g>
<path class="cls-21" transform="translate(-574.91 -314.66)" d="M914,462.74s.78,3.14,7.85,3.14A12,12,0,0,0,932,460.66s16.11,1.48,26.16,25.9S961,548.35,961,548.35l-64.21,1.9s1.69-11-.25-38.43c-.31-4.32-3.2-11.85-.71-22.05C899.57,474.36,914,462.74,914,462.74Z" data-name="Path 203"/>
<g data-name="Group 65">
<path class="cls-37" transform="translate(-574.91 -314.66)" d="m948.31 548-36.58 0.51v2.24l38.62-0.55a2.14 2.14 0 0 0-2.04-2.2z" data-name="Path 204"/>
<path class="cls-38" transform="translate(-574.91 -314.66)" d="M867.19,551.38l51.39-.72-10.31-34.35a3.93,3.93,0,0,0-3.74-2.92l-46.46.65a1.64,1.64,0,0,0-1.51,1.78,1.86,1.86,0,0,0,.08.41Z" data-name="Path 205"/>
<path class="cls-39" transform="translate(-574.91 -314.66)" d="M864.88,551.41l51.4-.72L906,516.34a3.93,3.93,0,0,0-3.74-2.92l-46.46.66a1.64,1.64,0,0,0-1.51,1.77,1.86,1.86,0,0,0,.08.41Z" data-name="Path 206"/>
<path class="cls-38" transform="translate(-574.91 -314.66)" d="m879.79 533a4 4 0 0 0 4 2.86c1.9 0 3.18-1.35 2.86-2.95a4 4 0 0 0-4-2.86c-1.9 0.06-3.18 1.38-2.86 2.95z" data-name="Path 207"/>
</g>
<path class="cls-23" transform="translate(-574.91 -314.66)" d="m941.79 497.31s1.6 26.1-1.36 30.84c-1.74 2.78-28 11.54-28 11.54v18.73s39.9-1.21 50.38-15.39c7.85-10.63 6.72-45.72 6.72-45.72" data-name="Path 208"/>
<path class="cls-21" transform="translate(-574.91 -314.66)" d="M932,460.66s17.22,1.7,25.82,9.7c12.9,12,13.84,31,13.84,31H941l-.34-16.15" data-name="Path 209"/>
<path class="cls-21" transform="translate(-574.91 -314.66)" d="m914 462.74c-10.22 1-18.14 5.38-22.34 11.27-6.52 9.14-11.08 23.3-11.08 23.3l24.2 7" data-name="Path 210"/>
<path class="cls-31" transform="translate(-574.91 -314.66)" d="M941,501.37c-.25-12.12-1.57-17.84-1.57-17.84" data-name="Path 211"/>
<path class="cls-31" transform="translate(-574.91 -314.66)" d="m894.14 501.24c-1-10.33 6.41-21.24 6.41-21.24" data-name="Path 212"/>
<g data-name="Group 67">
<g data-name="Group 66">
<path class="cls-23" transform="translate(-574.91 -314.66)" d="M919.88,537.67c-4.22.74-26.44,5.25-26.18,6.37s6.78.87,6.59,1.49c-.28.88-5.1,2.05-7.87,2.45-2.47.36-6.37,1.35-6.35,2.44,0,2.08,13.55-.08,13.55-.08s-15-.39-15.12,1.35c-.22,2.52,15.64,2.34,16.2,2.89,0,0-13.8-3.66-14-1.8s12.08,5.44,15.86,5.17c-3.14-.37-12.73-5-12.8-3.32s8.22,4.14,9.55,4.24a76.47,76.47,0,0,0,20.8-1.54" data-name="Path 213"/>
</g>
</g>
<path class="cls-40" transform="translate(-574.91 -314.66)" d="M887.58,551.23s6.77-.25,10.62-.68" data-name="Path 214"/>
<path class="cls-40" transform="translate(-574.91 -314.66)" d="M889.18,553.54s7.67,1,11.52.57" data-name="Path 215"/>
<path class="cls-40" transform="translate(-574.91 -314.66)" d="m891.64 555.75a87.64 87.64 0 0 0 10.22 1.2" data-name="Path 216"/>
<path class="cls-17" transform="translate(-574.91 -314.66)" d="m932.32 456.69s-4.37 8.17-11.63 9.16l3.83 7.17a16.86 16.86 0 0 0 8.91-12.36z" data-name="Path 217"/>
<path class="cls-17" transform="translate(-574.91 -314.66)" d="m914.35 458.66s-1.06 5.83 6.34 7.19l-3.45 6.69a15.12 15.12 0 0 1-5.07-9.58z" data-name="Path 218"/>
</g>
</g>
<g data-name="Group 80">
<g data-name="Group 70">
<path class="cls-23" transform="translate(-574.91 -314.66)" d="m1049.8 447.35-1.2 12.09s1 3.42 7.65 4.16c8.11 0.9 12.39-6 12.39-6l-2.41-11.89" data-name="Path 219"/>
<path class="cls-23" transform="translate(-574.91 -314.66)" d="m1045.2 432.39s-4.77 15.15 2 19.14c6.15 3.62 16.42-2 17-3.93s3.32-18.23-0.59-19.45c-6.93-2.15-16.37-2.27-18.41 4.24z" data-name="Path 220"/>
<path class="cls-34" transform="translate(-574.91 -314.66)" d="m1049.3 453.06s6.44 1.68 11.23-2.56" data-name="Path 221"/>
<path class="cls-16" transform="translate(-574.91 -314.66)" d="M1041.85,424.09c-.82-8.08,10.07-4.48,14.79-1.83,1.41.8,8.66,1.18,10,2.05a8.35,8.35,0,0,1,3.26,3.53,10.15,10.15,0,0,1,.68,4.19,51.45,51.45,0,0,1-.82,7.63c-.44,2.76-1.1,8.19-4.8,8.52a3,3,0,0,1-2.09-.31A2.67,2.67,0,0,1,1062,446a9.55,9.55,0,0,1,.22-3.45c-.7.38-1.35,1-2.13.9a1.16,1.16,0,0,1-.61-.43c-.66-.65-1.29-5.85.59-8.41-3.79-.8-6.49-.31-10.31-.94a11.23,11.23,0,0,1-5.94-2.76C1042,429.32,1042.1,426.54,1041.85,424.09Z" data-name="Path 222"/>
<path class="cls-23" transform="translate(-574.91 -314.66)" d="M1061.31,442.27c.58-1.42,1.58-3.14,3.16-2.17a3.11,3.11,0,0,1,1.09,1.78c.72,2.35-1,6-3.27,5.64-1.13-.16-1.75-1.5-2.21-2.6" data-name="Path 223"/>
<path class="cls-28" transform="translate(-574.91 -314.66)" d="M1048.38,437.82s-2.63,4.19-2.36,5.34,2.74.72,2.74.72" data-name="Path 224"/>
<path class="cls-17" transform="translate(-574.91 -314.66)" d="m1045.3 445.74 6.38 0.46s-0.05 3.66-3.09 3.66-3.29-4.12-3.29-4.12z" data-name="Path 225"/>
<path class="cls-19" transform="translate(-574.91 -314.66)" d="m1045.7 436.69-0.25 1" data-name="Path 226"/>
<path class="cls-20" transform="translate(-574.91 -314.66)" d="M1047.69,434.77a2,2,0,0,0-2.74-.36.27.27,0,0,1-.08.07" data-name="Path 227"/>
<path class="cls-19" transform="translate(-574.91 -314.66)" d="m1054.3 438.56-0.2 1" data-name="Path 228"/>
<path class="cls-20" transform="translate(-574.91 -314.66)" d="m1053.5 435.54s1.82-0.65 3.76 1.48" data-name="Path 229"/>
</g>
<g data-name="Group 77">
<g data-name="Group 73">
<g data-name="Group 72">
<g data-name="Group 71">
<path class="cls-7" transform="translate(-574.91 -314.66)" d="m1080.9 680 23.9 26.28 9.1 6.74-27.51 34.82a2 2 0 0 1-2.76 0.32 2 2 0 0 1-0.61-2.16l4.86-20.5-26.13-25.81" data-name="Path 230"/>
<path class="cls-26" transform="translate(-574.91 -314.66)" d="m1083.6 750.6c-0.85-1.23-1.59-2.87-1.36-3.76l5.62-21.37c10.46-6 16.65-19.56 16.65-19.56l13.63 7.38a0.91 0.91 0 0 1 0.15 1.29l-30.44 38.92c-0.61 0.78-4.23-2.86-4.25-2.9z" data-name="Path 231"/>
<path class="cls-27" transform="translate(-574.91 -314.66)" d="M1085.84,729.47a24.12,24.12,0,0,1,5.55.71" data-name="Path 232"/>
<path class="cls-27" transform="translate(-574.91 -314.66)" d="M1085.47,732.43a20.47,20.47,0,0,1,4.67.66" data-name="Path 233"/>
<path class="cls-27" transform="translate(-574.91 -314.66)" d="M1085,734.81a29.76,29.76,0,0,1,4.31.58" data-name="Path 234"/>
</g>
<line class="cls-27" x1="541.2" x2="509.81" y1="397.36" y2="437.08" data-name="Line 49"/>
<path class="cls-27" transform="translate(-574.91 -314.66)" d="m1109.4 708.53s-7.14 9.51-2.12 14.73" data-name="Path 235"/>
<path class="cls-27" transform="translate(-574.91 -314.66)" d="M1083.39,742.46s5.7.29,7.79,1.1" data-name="Path 236"/>
</g>
</g>
<path class="cls-41" transform="translate(-574.91 -314.66)" d="m1027.8 557.8s-22 68.69-17.37 92.89c2.17 11.33 15 22.34 28.64 35.2 18.77 17.73 39.41 36 39.41 36l17.67-31.22s-42.48-40.89-42.48-49.52c0-13 22.2-80.75 22.2-80.75" data-name="Path 237"/>
<path class="cls-42" transform="translate(-574.91 -314.66)" d="m1062.1 592.78s-15.59 41.06-13.72 49.65c1.82 8.38 44.09 50 44.09 50" data-name="Path 238"/>
<g data-name="Group 76">
<g data-name="Group 75">
<g data-name="Group 74">
<path class="cls-7" transform="translate(-574.91 -314.66)" d="m1095.6 713.41 2.33 36 0.3 11.33-44.39-0.23a2 2 0 0 1-2-2 2 2 0 0 1 1.27-1.83l19.14-8.8-4.08-37.45" data-name="Path 239"/>
<path class="cls-26" transform="translate(-574.91 -314.66)" d="m1049.9 760c0.46-1.42 1.29-3 2.13-3.38l20.3-8.74c11.19 4.56 25.67 1.12 25.67 1.12l2.58 15.28a0.92 0.92 0 0 1-0.92 0.91h-49.42c-0.99-0.03-0.35-5.12-0.34-5.19z" data-name="Path 240"/>
<path class="cls-27" transform="translate(-574.91 -314.66)" d="m1067.9 748.78a24.45 24.45 0 0 1 2.86 4.8" data-name="Path 241"/>
<path class="cls-27" transform="translate(-574.91 -314.66)" d="m1065.4 750.3a21.27 21.27 0 0 1 2.35 4.09" data-name="Path 242"/>
<path class="cls-27" transform="translate(-574.91 -314.66)" d="m1063.2 751.42a29.91 29.91 0 0 1 2.2 3.75" data-name="Path 243"/>
</g>
<line class="cls-27" x1="525.41" x2="474.79" y1="447.2" y2="446.94" data-name="Line 50"/>
<path class="cls-27" transform="translate(-574.91 -314.66)" d="M1098.91,754.39s-11.89.24-12.91,7.4" data-name="Path 244"/>
<path class="cls-27" transform="translate(-574.91 -314.66)" d="m1056.2 754.85s3.28 4.66 3.93 6.81" data-name="Path 245"/>
</g>
</g>
<path class="cls-42" transform="translate(-574.91 -314.66)" d="m1037.2 562.61c-0.84 8.72-12.68 8.31-12.68 8.31" data-name="Path 246"/>
<path class="cls-41" transform="translate(-574.91 -314.66)" d="M1101.2,555.89a80.24,80.24,0,0,1-1,24.35,6.28,6.28,0,0,0-.14,1.44l2.87,161.9-38.18-.21s-11.37-153-11-185.57" data-name="Path 247"/>
<path class="cls-42" transform="translate(-574.91 -314.66)" d="m1095.6 558.5c0.59 11.18-1.64 15.9-1.28 22.4 4.44 78.3 3.74 162.67 3.74 162.67" data-name="Path 248"/>
<path class="cls-42" transform="translate(-574.91 -314.66)" d="m1053.7 560.79c1.26 39.57 8.41 146.09 8.41 146.09" data-name="Path 249"/>
<path class="cls-42" transform="translate(-574.91 -314.66)" d="m1075.6 562.61c3.35 9.75 18.48 11.93 18.48 11.93" data-name="Path 250"/>
<path class="cls-42" transform="translate(-574.91 -314.66)" d="M1049.15,562.61c-.64,9.75-.12,16,.43,17.54.32.9,3,1.29,4.8,2" data-name="Path 251"/>
<line class="cls-42" x1="489.22" x2="527.92" y1="420.55" y2="420.55" data-name="Line 51"/>
</g>
<g data-name="Group 79">
<path class="cls-23" transform="translate(-574.91 -314.66)" d="m974.58 475.23s21.54 38.55 31.29 49.86c3.33 3.85 6.64 7.9 12.15 6.43 10.85-2.88 19.84-40.84 19.84-40.84l-17.63-13.28-5.6 16.28-24.85-27.46" data-name="Path 252"/>
<path class="cls-26" transform="translate(-574.91 -314.66)" d="m1068.6 457.63s-4.79 4.6-10.93 4.6c-7.67 0-9.11-2.79-9.11-2.79s-18.11 6-20.31 32.37c-3.4 40.6-3.4 71.82-3.4 71.82h78.28s3.74-97.82-34.53-106z" data-name="Path 253"/>
<path class="cls-23" transform="translate(-574.91 -314.66)" d="M1104.54,493.76c.23,16.87.87,36.27-3.19,44.15-5.89,11.45-62.75,7.64-62.75,7.64l.28-19s34-3.82,36.27-5c2.88-1.59,1.16-26.33,1.16-26.33" data-name="Path 254"/>
<path class="cls-26" transform="translate(-574.91 -314.66)" d="m1048.6 459.44c-11.88-1.81-22.35 1.22-26.47 9.52-3.61 7.28-8.91 20.86-8.91 20.86l28.63 8.6" data-name="Path 255"/>
<path class="cls-23" transform="translate(-574.91 -314.66)" d="M1051.62,525.08s-18.34,1.28-26.69,2.34c-2.64.34-5.48,1.57-4.46,4.11-1.91,1.14-2.2,3-.9,4.9a3,3,0,0,0-.27,4.26,2.92,2.92,0,0,0,.93.71c-1.5,1.1-2.13,2.87-.1,4.56a14.3,14.3,0,0,0,6.08,2.23c1.51,0,0-2.33-1.68-3.32a36.72,36.72,0,0,1,6.71.23l11.4.67" data-name="Path 256"/>
<path class="cls-43" transform="translate(-574.91 -314.66)" d="m1020.2 541.4a11.2 11.2 0 0 1 5.52-1.33" data-name="Path 257"/>
<path class="cls-43" transform="translate(-574.91 -314.66)" d="m1019.3 536.48a11.2 11.2 0 0 1 5.52-1.33" data-name="Path 258"/>
<path class="cls-43" transform="translate(-574.91 -314.66)" d="m1020.7 531.51a14.44 14.44 0 0 1 5.52-1" data-name="Path 259"/>
<path class="cls-26" transform="translate(-574.91 -314.66)" d="m1068.6 457.63s26.32-1.3 32.58 13.19c5.49 12.71 6.19 29.55 6.19 29.55l-32.24 2-1.65-19.7" data-name="Path 260"/>
<path class="cls-27" transform="translate(-574.91 -314.66)" d="m1075.1 502.39c-0.94-11.18-1.5-18-1.5-18" data-name="Path 261"/>
<path class="cls-27" transform="translate(-574.91 -314.66)" d="m1028 494.29s1.38-13.14 3.74-17.38" data-name="Path 262"/>
<path class="cls-44" transform="translate(-574.91 -314.66)" d="m1014.6 493.67s7.46 8.72 8.36 14.42" data-name="Path 263"/>
<path class="cls-23" transform="translate(-574.91 -314.66)" d="M998.46,475.81c-4.38-5.31-15.44-22-16.82-21.72s2.11,6.46.93,6.46-7.2-9.16-8.51-8.53c-1.79.86,4.88,9.92,4.88,9.92s-7.8-9.56-9.13-8.38c-.94.85,4.68,8.42,6.46,11.58-2.37-3.18-6.82-7.88-7.78-7s2.76,6.13,5.4,10.29c-1.89-2.45-5.56-6.71-6.48-5.92s7.22,14.14,15.38,26.41" data-name="Path 264"/>
<path class="cls-44" transform="translate(-574.91 -314.66)" d="m976.38 469.83a14.8 14.8 0 0 1 6.64 5.42" data-name="Path 265"/>
<path class="cls-44" transform="translate(-574.91 -314.66)" d="m984 463.48a10.52 10.52 0 0 0 4 7.37" data-name="Path 266"/>
<g data-name="Group 78">
<path class="cls-15" transform="translate(-574.91 -314.66)" d="M1035.83,456.7a2.47,2.47,0,0,0-2.3-.13c-1.87,1.19-2.85,6-2.62,8.29.06.61.3,1.3.78,1.31s.71-.45,1-.87c.93-1.61,1.54-4.88,2.4-6.55" data-name="Path 267"/>
<path class="cls-15" transform="translate(-574.91 -314.66)" d="M1040.18,456.87c-2-1.57-3.69-1-4.42-.42-1.87,1.57-2.42,6.68-1.92,9.06.13.61.46,1.29,1,1.21s.71-.6.92-1.08c.83-1.84,1.13-5.34,1.88-7.22" data-name="Path 268"/>
<path class="cls-15" transform="translate(-574.91 -314.66)" d="M1041.81,456.33s-2.52-.95-3.2-.29c-1.77,1.7-2.37,7.66-1.72,10,.17.6.56,1.25,1.07,1.14s.67-.65.85-1.14c.7-1.89.76-5.4,1.39-7.33" data-name="Path 269"/>
<path class="cls-15" transform="translate(-574.91 -314.66)" d="M1040.11,465.61c.17.58.53,1.21,1,1.11s.62-.61.78-1.08c.4-1.14.3-6.36,1.78-6.21a8,8,0,0,0-.79,2.79c0,.26,0,.58.24.68s.48-.09.66-.26a18.82,18.82,0,0,1,2.83-2.2c.62-.39,1.94-1,1.94-1s-2.55-2.57-4.44-3c-1.38-.35-3.08-.8-3.89.63C1038.92,459.32,1039.43,463.19,1040.11,465.61Z" data-name="Path 270"/>
<path class="cls-45" transform="translate(-574.91 -314.66)" d="m1040.9 456.41c-1.72 1-1.56 3.25-1.46 5" data-name="Path 271"/>
<path class="cls-45" transform="translate(-574.91 -314.66)" d="M1038.61,456c-1.69.9-2,3.89-1.9,5.95" data-name="Path 272"/>
<path class="cls-45" transform="translate(-574.91 -314.66)" d="M1035.59,456.8c-1.69.89-1.69,4.22-1.9,5.95" data-name="Path 273"/>
</g>
</g>
</g>
</g>
</svg>
